<svg xmlns="http://www.w3.org/2000/svg" width="147" height="147" viewBox="0 0 147 147"><defs><linearGradient id="e92ma" x1="73.63" x2="73.67" y1="146.31" y2=".35" gradientUnits="userSpaceOnUse"><stop offset="0" stop-color="#6365d9"/><stop offset="1" stop-color="#34beea"/></linearGradient></defs><g><g><path fill="#69def4" d="M80.988 112.252c0 13.434-10.896 24.325-24.338 24.325-13.441 0-24.337-10.89-24.337-24.325 0-13.435 10.896-24.326 24.337-24.326 13.436.014 24.323 10.896 24.338 24.326zm-4.868 0c0-10.749-8.716-19.461-19.47-19.461-10.753 0-19.47 8.712-19.47 19.46 0 10.748 8.717 19.46 19.47 19.46 10.748-.011 19.458-8.718 19.47-19.46zm-24.337-4.866c0 .993 1.895 2.433 4.867 2.433 5.46 0 9.735 3.203 9.735 7.298 0 3.46-3.063 6.262-7.301 7.054v2.676h-4.867v-2.676c-4.238-.798-7.302-3.598-7.302-7.054h4.868c0 .993 1.895 2.433 4.867 2.433s4.868-1.44 4.868-2.433c0-.993-1.896-2.433-4.868-2.433-5.459 0-9.735-3.203-9.735-7.298 0-3.46 3.064-6.262 7.302-7.053v-2.677h4.867v2.677c4.238.798 7.301 3.597 7.301 7.053h-4.867c0-.993-1.896-2.432-4.868-2.432-2.972 0-4.867 1.439-4.867 2.432zm73.012 4.866h4.867v34.055H17.71V83.061H7.975a7.3 7.3 0 0 1-7.3-7.298V7.652a7.3 7.3 0 0 1 7.3-7.298h53.543a7.3 7.3 0 0 1 7.301 7.298v2.432h30.213l30.63 30.616v37.496h-4.867V44.14H95.59V14.95H68.82v60.813a7.3 7.3 0 0 1-7.301 7.298h-38.94v58.381h102.217zm-24.337-72.977h20.896l-20.896-20.886zM7.975 78.196h53.543a2.433 2.433 0 0 0 2.433-2.433V7.652a2.433 2.433 0 0 0-2.433-2.432H7.975a2.433 2.433 0 0 0-2.433 2.432v68.111a2.433 2.433 0 0 0 2.433 2.433zM78.554 61.17h4.867v4.864h-4.867zm9.735 0h29.205v4.864H88.289zm-9.735-9.731h4.867v4.865h-4.867zm9.735 0h29.205v4.865H88.289zm-9.735 19.46h4.867v4.865h-4.867zm9.735 0h29.205v4.865H88.289zm-9.735 9.73h4.867v4.866h-4.867zm9.735 0h29.205v4.866H88.289zM61.518 24.68H7.975V7.652h53.543zM56.65 12.517H12.843v7.298H56.65zm-31.638 19.46v4.866a4.866 4.866 0 0 1-4.868 4.864h-4.867a4.866 4.866 0 0 1-4.868-4.864v-4.865a4.866 4.866 0 0 1 4.868-4.865h4.867a4.866 4.866 0 0 1 4.868 4.865zm-4.868 4.866v-4.865h-4.867v4.865zm21.904-4.865v4.865a4.866 4.866 0 0 1-4.868 4.864h-4.867a4.866 4.866 0 0 1-4.868-4.864v-4.865a4.866 4.866 0 0 1 4.868-4.865h4.867a4.866 4.866 0 0 1 4.868 4.865zm-4.868 4.865v-4.865h-4.867v4.865zm21.904-4.865v4.865a4.866 4.866 0 0 1-4.867 4.864h-4.868a4.866 4.866 0 0 1-4.867-4.864v-4.865a4.866 4.866 0 0 1 4.867-4.865h4.868a4.866 4.866 0 0 1 4.867 4.865zm-4.867 4.865v-4.865h-4.868v4.865zM25.012 49.005v4.866a4.866 4.866 0 0 1-4.868 4.864h-4.867a4.866 4.866 0 0 1-4.868-4.864v-4.866a4.866 4.866 0 0 1 4.868-4.865h4.867a4.866 4.866 0 0 1 4.868 4.865zm-4.868 4.866v-4.866h-4.867v4.866zm21.904-4.866v4.866a4.866 4.866 0 0 1-4.868 4.864h-4.867a4.866 4.866 0 0 1-4.868-4.864v-4.866a4.866 4.866 0 0 1 4.868-4.865h4.867a4.866 4.866 0 0 1 4.868 4.865zm-4.868 4.866v-4.866h-4.867v4.866zm21.904-4.866v4.866a4.866 4.866 0 0 1-4.867 4.864h-4.868a4.866 4.866 0 0 1-4.867-4.864v-4.866a4.866 4.866 0 0 1 4.867-4.865h4.868a4.866 4.866 0 0 1 4.867 4.865zm-4.867 4.866v-4.866h-4.868v4.866zM25.012 66.033v4.865a4.867 4.867 0 0 1-4.868 4.865h-4.867a4.866 4.866 0 0 1-4.868-4.865v-4.865a4.866 4.866 0 0 1 4.868-4.865h4.867a4.866 4.866 0 0 1 4.868 4.865zm-4.868 4.865v-4.865h-4.867v4.865zm21.904-4.865v4.865a4.867 4.867 0 0 1-4.868 4.865h-4.867a4.867 4.867 0 0 1-4.868-4.865v-4.865a4.866 4.866 0 0 1 4.868-4.865h4.867a4.866 4.866 0 0 1 4.868 4.865zm-4.868 4.865v-4.865h-4.867v4.865zm21.904-4.865v4.865a4.867 4.867 0 0 1-4.867 4.865h-4.868a4.867 4.867 0 0 1-4.867-4.865v-4.865a4.866 4.866 0 0 1 4.867-4.865h4.868a4.866 4.866 0 0 1 4.867 4.865zm-4.867 4.865v-4.865h-4.868v4.865zm90.271 17.395l-41.718 41.702a2.452 2.452 0 0 1-.703.487l-12.758 5.872a2.435 2.435 0 0 1-3.228-3.226l5.875-12.752c.12-.261.285-.499.487-.703l41.722-41.7a7.476 7.476 0 0 1 10.323 0 7.293 7.293 0 0 1 0 10.32zm-13.745 6.858l-3.442-3.44-31.107 31.095-2.938 6.373 6.377-2.936zm5.152-5.152l-3.441-3.44-1.704 1.703 3.441 3.439zm5.16-8.597a2.487 2.487 0 0 0-3.439 0l-1.723 1.72 3.441 3.439 1.721-1.72c.95-.95.95-2.489 0-3.439z"/><path fill="url(#e92ma)" d="M80.988 112.252c0 13.434-10.896 24.325-24.338 24.325-13.441 0-24.337-10.89-24.337-24.325 0-13.435 10.896-24.326 24.337-24.326 13.436.014 24.323 10.896 24.338 24.326zm-4.868 0c0-10.749-8.716-19.461-19.47-19.461-10.753 0-19.47 8.712-19.47 19.46 0 10.748 8.717 19.46 19.47 19.46 10.748-.011 19.458-8.718 19.47-19.46zm-24.337-4.866c0 .993 1.895 2.433 4.867 2.433 5.46 0 9.735 3.203 9.735 7.298 0 3.46-3.063 6.262-7.301 7.054v2.676h-4.867v-2.676c-4.238-.798-7.302-3.598-7.302-7.054h4.868c0 .993 1.895 2.433 4.867 2.433s4.868-1.44 4.868-2.433c0-.993-1.896-2.433-4.868-2.433-5.459 0-9.735-3.203-9.735-7.298 0-3.46 3.064-6.262 7.302-7.053v-2.677h4.867v2.677c4.238.798 7.301 3.597 7.301 7.053h-4.867c0-.993-1.896-2.432-4.868-2.432-2.972 0-4.867 1.439-4.867 2.432zm73.012 4.866h4.867v34.055H17.71V83.061H7.975a7.3 7.3 0 0 1-7.3-7.298V7.652a7.3 7.3 0 0 1 7.3-7.298h53.543a7.3 7.3 0 0 1 7.301 7.298v2.432h30.213l30.63 30.616v37.496h-4.867V44.14H95.59V14.95H68.82v60.813a7.3 7.3 0 0 1-7.301 7.298h-38.94v58.381h102.217zm-24.337-72.977h20.896l-20.896-20.886zM7.975 78.196h53.543a2.433 2.433 0 0 0 2.433-2.433V7.652a2.433 2.433 0 0 0-2.433-2.432H7.975a2.433 2.433 0 0 0-2.433 2.432v68.111a2.433 2.433 0 0 0 2.433 2.433zM78.554 61.17h4.867v4.864h-4.867zm9.735 0h29.205v4.864H88.289zm-9.735-9.731h4.867v4.865h-4.867zm9.735 0h29.205v4.865H88.289zm-9.735 19.46h4.867v4.865h-4.867zm9.735 0h29.205v4.865H88.289zm-9.735 9.73h4.867v4.866h-4.867zm9.735 0h29.205v4.866H88.289zM61.518 24.68H7.975V7.652h53.543zM56.65 12.517H12.843v7.298H56.65zm-31.638 19.46v4.866a4.866 4.866 0 0 1-4.868 4.864h-4.867a4.866 4.866 0 0 1-4.868-4.864v-4.865a4.866 4.866 0 0 1 4.868-4.865h4.867a4.866 4.866 0 0 1 4.868 4.865zm-4.868 4.866v-4.865h-4.867v4.865zm21.904-4.865v4.865a4.866 4.866 0 0 1-4.868 4.864h-4.867a4.866 4.866 0 0 1-4.868-4.864v-4.865a4.866 4.866 0 0 1 4.868-4.865h4.867a4.866 4.866 0 0 1 4.868 4.865zm-4.868 4.865v-4.865h-4.867v4.865zm21.904-4.865v4.865a4.866 4.866 0 0 1-4.867 4.864h-4.868a4.866 4.866 0 0 1-4.867-4.864v-4.865a4.866 4.866 0 0 1 4.867-4.865h4.868a4.866 4.866 0 0 1 4.867 4.865zm-4.867 4.865v-4.865h-4.868v4.865zM25.012 49.005v4.866a4.866 4.866 0 0 1-4.868 4.864h-4.867a4.866 4.866 0 0 1-4.868-4.864v-4.866a4.866 4.866 0 0 1 4.868-4.865h4.867a4.866 4.866 0 0 1 4.868 4.865zm-4.868 4.866v-4.866h-4.867v4.866zm21.904-4.866v4.866a4.866 4.866 0 0 1-4.868 4.864h-4.867a4.866 4.866 0 0 1-4.868-4.864v-4.866a4.866 4.866 0 0 1 4.868-4.865h4.867a4.866 4.866 0 0 1 4.868 4.865zm-4.868 4.866v-4.866h-4.867v4.866zm21.904-4.866v4.866a4.866 4.866 0 0 1-4.867 4.864h-4.868a4.866 4.866 0 0 1-4.867-4.864v-4.866a4.866 4.866 0 0 1 4.867-4.865h4.868a4.866 4.866 0 0 1 4.867 4.865zm-4.867 4.866v-4.866h-4.868v4.866zM25.012 66.033v4.865a4.867 4.867 0 0 1-4.868 4.865h-4.867a4.866 4.866 0 0 1-4.868-4.865v-4.865a4.866 4.866 0 0 1 4.868-4.865h4.867a4.866 4.866 0 0 1 4.868 4.865zm-4.868 4.865v-4.865h-4.867v4.865zm21.904-4.865v4.865a4.867 4.867 0 0 1-4.868 4.865h-4.867a4.867 4.867 0 0 1-4.868-4.865v-4.865a4.866 4.866 0 0 1 4.868-4.865h4.867a4.866 4.866 0 0 1 4.868 4.865zm-4.868 4.865v-4.865h-4.867v4.865zm21.904-4.865v4.865a4.867 4.867 0 0 1-4.867 4.865h-4.868a4.867 4.867 0 0 1-4.867-4.865v-4.865a4.866 4.866 0 0 1 4.867-4.865h4.868a4.866 4.866 0 0 1 4.867 4.865zm-4.867 4.865v-4.865h-4.868v4.865zm90.271 17.395l-41.718 41.702a2.452 2.452 0 0 1-.703.487l-12.758 5.872a2.435 2.435 0 0 1-3.228-3.226l5.875-12.752c.12-.261.285-.499.487-.703l41.722-41.7a7.476 7.476 0 0 1 10.323 0 7.293 7.293 0 0 1 0 10.32zm-13.745 6.858l-3.442-3.44-31.107 31.095-2.938 6.373 6.377-2.936zm5.152-5.152l-3.441-3.44-1.704 1.703 3.441 3.439zm5.16-8.597a2.487 2.487 0 0 0-3.439 0l-1.723 1.72 3.441 3.439 1.721-1.72c.95-.95.95-2.489 0-3.439z"/></g></g></svg>