<svg xmlns="http://www.w3.org/2000/svg" width="154" height="137" viewBox="0 0 154 137"><defs><linearGradient id="q5dga" x1="77.83" x2="76.87" y1="136.31" y2=".86" gradientUnits="userSpaceOnUse"><stop offset="0" stop-color="#6365d9"/><stop offset="1" stop-color="#34beea"/></linearGradient></defs><g><g><path fill="#fff" d="M61.22 99.393c-.578 0-1.16-.2-1.635-.605L43.244 84.823a2.541 2.541 0 0 1 0-3.86l16.34-13.965a2.519 2.519 0 0 1 3.56.286 2.54 2.54 0 0 1-.286 3.572L48.776 82.892l14.082 12.036a2.54 2.54 0 0 1 .286 3.573c-.5.59-1.21.892-1.925.892zm32.258 0a2.513 2.513 0 0 1-1.923-.892 2.54 2.54 0 0 1 .285-3.573l14.082-12.036L91.84 70.856a2.54 2.54 0 0 1-.285-3.572 2.517 2.517 0 0 1 3.558-.286l16.341 13.965c.564.482.888 1.187.888 1.93 0 .743-.324 1.448-.888 1.93l-16.34 13.965a2.514 2.514 0 0 1-1.636.605zm-21.914 10.475a2.535 2.535 0 0 1-2.475-3.058l10.185-48.53a2.525 2.525 0 0 1 2.992-1.957 2.534 2.534 0 0 1 1.95 3.003l-10.184 48.53a2.528 2.528 0 0 1-2.468 2.012zm65.309 26.44H17.825C8.477 136.307.87 128.673.87 119.29V17.88C.87 8.497 8.477.863 17.825.863h119.048c9.349 0 16.955 7.634 16.955 17.017v101.41c0 9.384-7.606 17.017-16.955 17.017zM17.825 5.931c-6.564 0-11.905 5.36-11.905 11.948v18.498h142.858V17.88c0-6.588-5.341-11.948-11.905-11.948zM5.92 119.29c0 6.588 5.341 11.948 11.905 11.948h119.048c6.564 0 11.905-5.36 11.905-11.948V41.447H5.92zM44.016 29.32c-4.405 0-7.991-3.6-7.991-8.02 0-4.423 3.586-8.021 7.991-8.021 4.407 0 7.992 3.598 7.992 8.02s-3.585 8.021-7.992 8.021zm0-10.972a2.95 2.95 0 0 0-2.94 2.951 2.95 2.95 0 0 0 2.94 2.952 2.949 2.949 0 0 0 2.941-2.952 2.949 2.949 0 0 0-2.94-2.951zM19.463 29.24c-4.407 0-7.992-3.597-7.992-8.02s3.585-8.021 7.992-8.021c4.406 0 7.991 3.598 7.991 8.02 0 4.424-3.585 8.021-7.991 8.021zm0-10.972a2.951 2.951 0 0 0-2.941 2.952 2.95 2.95 0 0 0 2.94 2.952 2.95 2.95 0 0 0 2.941-2.952 2.95 2.95 0 0 0-2.94-2.952zM68.57 29.395c-4.405 0-7.99-3.597-7.99-8.02 0-4.421 3.585-8.02 7.99-8.02 4.406 0 7.991 3.599 7.991 8.02 0 4.423-3.585 8.02-7.991 8.02zm0-10.972a2.949 2.949 0 0 0-2.94 2.951 2.949 2.949 0 0 0 2.94 2.953 2.95 2.95 0 0 0 2.94-2.953 2.949 2.949 0 0 0-2.94-2.95z"/><path fill="url(#q5dga)" d="M61.22 99.393c-.578 0-1.16-.2-1.635-.605L43.244 84.823a2.541 2.541 0 0 1 0-3.86l16.34-13.965a2.519 2.519 0 0 1 3.56.286 2.54 2.54 0 0 1-.286 3.572L48.776 82.892l14.082 12.036a2.54 2.54 0 0 1 .286 3.573c-.5.59-1.21.892-1.925.892zm32.258 0a2.513 2.513 0 0 1-1.923-.892 2.54 2.54 0 0 1 .285-3.573l14.082-12.036L91.84 70.856a2.54 2.54 0 0 1-.285-3.572 2.517 2.517 0 0 1 3.558-.286l16.341 13.965c.564.482.888 1.187.888 1.93 0 .743-.324 1.448-.888 1.93l-16.34 13.965a2.514 2.514 0 0 1-1.636.605zm-21.914 10.475a2.535 2.535 0 0 1-2.475-3.058l10.185-48.53a2.525 2.525 0 0 1 2.992-1.957 2.534 2.534 0 0 1 1.95 3.003l-10.184 48.53a2.528 2.528 0 0 1-2.468 2.012zm65.309 26.44H17.825C8.477 136.307.87 128.673.87 119.29V17.88C.87 8.497 8.477.863 17.825.863h119.048c9.349 0 16.955 7.634 16.955 17.017v101.41c0 9.384-7.606 17.017-16.955 17.017zM17.825 5.931c-6.564 0-11.905 5.36-11.905 11.948v18.498h142.858V17.88c0-6.588-5.341-11.948-11.905-11.948zM5.92 119.29c0 6.588 5.341 11.948 11.905 11.948h119.048c6.564 0 11.905-5.36 11.905-11.948V41.447H5.92zM44.016 29.32c-4.405 0-7.991-3.6-7.991-8.02 0-4.423 3.586-8.021 7.991-8.021 4.407 0 7.992 3.598 7.992 8.02s-3.585 8.021-7.992 8.021zm0-10.972a2.95 2.95 0 0 0-2.94 2.951 2.95 2.95 0 0 0 2.94 2.952 2.949 2.949 0 0 0 2.941-2.952 2.949 2.949 0 0 0-2.94-2.951zM19.463 29.24c-4.407 0-7.992-3.597-7.992-8.02s3.585-8.021 7.992-8.021c4.406 0 7.991 3.598 7.991 8.02 0 4.424-3.585 8.021-7.991 8.021zm0-10.972a2.951 2.951 0 0 0-2.941 2.952 2.95 2.95 0 0 0 2.94 2.952 2.95 2.95 0 0 0 2.941-2.952 2.95 2.95 0 0 0-2.94-2.952zM68.57 29.395c-4.405 0-7.99-3.597-7.99-8.02 0-4.421 3.585-8.02 7.99-8.02 4.406 0 7.991 3.599 7.991 8.02 0 4.423-3.585 8.02-7.991 8.02zm0-10.972a2.949 2.949 0 0 0-2.94 2.951 2.949 2.949 0 0 0 2.94 2.953 2.95 2.95 0 0 0 2.94-2.953 2.949 2.949 0 0 0-2.94-2.95z"/></g></g></svg>