<svg xmlns="http://www.w3.org/2000/svg" width="149" height="149" viewBox="0 0 149 149"><defs><linearGradient id="7nita" x1="74.96" x2="74.67" y1="148.41" y2=".12" gradientUnits="userSpaceOnUse"><stop offset="0" stop-color="#6365d9"/><stop offset="1" stop-color="#34beea"/></linearGradient></defs><g><g><path fill="#fff" d="M40.218 131.107v14.83a2.471 2.471 0 0 1-2.472 2.47h-34.6a2.471 2.471 0 0 1-2.472-2.47v-14.83a2.471 2.471 0 0 1 2.472-2.47h2.471v-2.44c0-1.45-.184-2.896-.546-4.3l-3.811-14.81a12.477 12.477 0 0 1 .336-6.379l13.188-40.532a7.33 7.33 0 0 1 7.133-5.373 6.983 6.983 0 0 1 1.977.275 6.917 6.917 0 0 1 2.224 1.057 7.33 7.33 0 0 1 2.941 8.013L24.4 81.554a7.43 7.43 0 0 1 5.032 5.19l7.645 22.227a12.31 12.31 0 0 1 .67 4.015v6.216a17.257 17.257 0 0 1-2.813 9.435h2.812a2.47 2.47 0 0 1 2.472 2.47zm-29.658-4.91v2.44h18.45l1.717-2.578a12.329 12.329 0 0 0 2.076-6.857v-6.216c0-.819-.135-1.632-.403-2.406l-7.693-22.39a2.504 2.504 0 0 0-2.936-1.947 7.749 7.749 0 0 0-.33.106 2.4 2.4 0 0 0-1.638 2.299c-.004.196.02.393.072.583L24.356 106a2.472 2.472 0 1 1-4.775 1.28l-4.473-16.713a6.792 6.792 0 0 1-.248-1.92 7.346 7.346 0 0 1 4.326-6.722l5.103-19.053a2.43 2.43 0 0 0-.988-2.666 2.189 2.189 0 0 0-.757-.361l-.024-.006a2.441 2.441 0 0 0-2.993 1.72l-13.23 40.667a7.416 7.416 0 0 0-.22 3.75l3.781 14.677c.465 1.811.701 3.674.702 5.543zm24.715 7.382H5.617v9.886h29.658zm76.615-4.942h2.813a17.256 17.256 0 0 1-2.813-9.435v-6.216c0-1.363.227-2.717.67-4.006l7.644-22.225a7.429 7.429 0 0 1 5.032-5.19l-4.646-17.408a7.33 7.33 0 0 1 2.941-8.012 6.918 6.918 0 0 1 2.224-1.057 6.983 6.983 0 0 1 1.977-.275 7.33 7.33 0 0 1 7.12 5.363l13.188 40.52c.664 2.061.78 4.26.337 6.38l-3.811 14.808a17.286 17.286 0 0 0-.547 4.312v2.44h2.472a2.471 2.471 0 0 1 2.471 2.471v14.83a2.471 2.471 0 0 1-2.471 2.47h-34.6a2.471 2.471 0 0 1-2.472-2.47v-14.83a2.471 2.471 0 0 1 2.471-2.47zm27.89-7.986l3.782-14.678a7.416 7.416 0 0 0-.22-3.75l-13.23-40.665-.006-.024a2.442 2.442 0 0 0-3.011-1.692c-.273.07-.53.193-.757.361a2.43 2.43 0 0 0-.988 2.668l5.101 19.054a7.347 7.347 0 0 1 4.315 6.723 6.797 6.797 0 0 1-.247 1.92l-4.473 16.712a2.471 2.471 0 1 1-4.775-1.28l4.49-16.769c.052-.19.076-.387.072-.583a2.4 2.4 0 0 0-1.638-2.299c-.057-.02-.292-.106-.33-.106a2.504 2.504 0 0 0-2.935 1.948l-7.694 22.389a7.368 7.368 0 0 0-.403 2.406v6.216a12.33 12.33 0 0 0 2.076 6.857l1.718 2.578h18.45v-2.44c0-1.871.238-3.734.704-5.546zm-25.418 22.814h29.657v-9.886h-29.657zm2.471-123.574v49.677a2.47 2.47 0 0 1-1.362 2.21l-39.543 19.87a2.47 2.47 0 0 1-2.232-.007L34.153 71.523a2.472 2.472 0 0 1-1.35-2.202V19.89c0-.982.583-1.871 1.483-2.264L73.83.327a2.473 2.473 0 0 1 1.977 0l39.543 17.3a2.471 2.471 0 0 1 1.483 2.264zm-75.38 0l7.932 3.475L66.76 15.77a2.473 2.473 0 0 1 1.978 0l10.605 4.624a2.472 2.472 0 0 1 0 4.528l-13.2 5.776 8.674 3.796 33.377-14.604L74.818 5.287zm11.122 20.716l4.943 2.472V32.32l-4.943-2.163zM59.99 28l12.174-5.336-4.424-1.93-12.2 5.331zM37.746 67.806l34.6 17.602v-46.61l-9.885-4.325v12.604a2.471 2.471 0 0 1-3.576 2.212l-9.886-4.942a2.474 2.474 0 0 1-1.367-2.213V27.995l-9.886-4.325zm74.144.236V23.67l-34.6 15.138V85.43zm-20.864-.617a2.473 2.473 0 0 1 2.225 4.417l-9.904 4.977a2.472 2.472 0 1 1-2.224-4.416zm-11.003-1.589a2.471 2.471 0 0 1 1.095-3.319l9.76-4.907a2.473 2.473 0 0 1 2.224 4.417l-9.762 4.906a2.477 2.477 0 0 1-3.317-1.097z"/><path fill="url(#7nita)" d="M40.218 131.107v14.83a2.471 2.471 0 0 1-2.472 2.47h-34.6a2.471 2.471 0 0 1-2.472-2.47v-14.83a2.471 2.471 0 0 1 2.472-2.47h2.471v-2.44c0-1.45-.184-2.896-.546-4.3l-3.811-14.81a12.477 12.477 0 0 1 .336-6.379l13.188-40.532a7.33 7.33 0 0 1 7.133-5.373 6.983 6.983 0 0 1 1.977.275 6.917 6.917 0 0 1 2.224 1.057 7.33 7.33 0 0 1 2.941 8.013L24.4 81.554a7.43 7.43 0 0 1 5.032 5.19l7.645 22.227a12.31 12.31 0 0 1 .67 4.015v6.216a17.257 17.257 0 0 1-2.813 9.435h2.812a2.47 2.47 0 0 1 2.472 2.47zm-29.658-4.91v2.44h18.45l1.717-2.578a12.329 12.329 0 0 0 2.076-6.857v-6.216c0-.819-.135-1.632-.403-2.406l-7.693-22.39a2.504 2.504 0 0 0-2.936-1.947 7.749 7.749 0 0 0-.33.106 2.4 2.4 0 0 0-1.638 2.299c-.004.196.02.393.072.583L24.356 106a2.472 2.472 0 1 1-4.775 1.28l-4.473-16.713a6.792 6.792 0 0 1-.248-1.92 7.346 7.346 0 0 1 4.326-6.722l5.103-19.053a2.43 2.43 0 0 0-.988-2.666 2.189 2.189 0 0 0-.757-.361l-.024-.006a2.441 2.441 0 0 0-2.993 1.72l-13.23 40.667a7.416 7.416 0 0 0-.22 3.75l3.781 14.677c.465 1.811.701 3.674.702 5.543zm24.715 7.382H5.617v9.886h29.658zm76.615-4.942h2.813a17.256 17.256 0 0 1-2.813-9.435v-6.216c0-1.363.227-2.717.67-4.006l7.644-22.225a7.429 7.429 0 0 1 5.032-5.19l-4.646-17.408a7.33 7.33 0 0 1 2.941-8.012 6.918 6.918 0 0 1 2.224-1.057 6.983 6.983 0 0 1 1.977-.275 7.33 7.33 0 0 1 7.12 5.363l13.188 40.52c.664 2.061.78 4.26.337 6.38l-3.811 14.808a17.286 17.286 0 0 0-.547 4.312v2.44h2.472a2.471 2.471 0 0 1 2.471 2.471v14.83a2.471 2.471 0 0 1-2.471 2.47h-34.6a2.471 2.471 0 0 1-2.472-2.47v-14.83a2.471 2.471 0 0 1 2.471-2.47zm27.89-7.986l3.782-14.678a7.416 7.416 0 0 0-.22-3.75l-13.23-40.665-.006-.024a2.442 2.442 0 0 0-3.011-1.692c-.273.07-.53.193-.757.361a2.43 2.43 0 0 0-.988 2.668l5.101 19.054a7.347 7.347 0 0 1 4.315 6.723 6.797 6.797 0 0 1-.247 1.92l-4.473 16.712a2.471 2.471 0 1 1-4.775-1.28l4.49-16.769c.052-.19.076-.387.072-.583a2.4 2.4 0 0 0-1.638-2.299c-.057-.02-.292-.106-.33-.106a2.504 2.504 0 0 0-2.935 1.948l-7.694 22.389a7.368 7.368 0 0 0-.403 2.406v6.216a12.33 12.33 0 0 0 2.076 6.857l1.718 2.578h18.45v-2.44c0-1.871.238-3.734.704-5.546zm-25.418 22.814h29.657v-9.886h-29.657zm2.471-123.574v49.677a2.47 2.47 0 0 1-1.362 2.21l-39.543 19.87a2.47 2.47 0 0 1-2.232-.007L34.153 71.523a2.472 2.472 0 0 1-1.35-2.202V19.89c0-.982.583-1.871 1.483-2.264L73.83.327a2.473 2.473 0 0 1 1.977 0l39.543 17.3a2.471 2.471 0 0 1 1.483 2.264zm-75.38 0l7.932 3.475L66.76 15.77a2.473 2.473 0 0 1 1.978 0l10.605 4.624a2.472 2.472 0 0 1 0 4.528l-13.2 5.776 8.674 3.796 33.377-14.604L74.818 5.287zm11.122 20.716l4.943 2.472V32.32l-4.943-2.163zM59.99 28l12.174-5.336-4.424-1.93-12.2 5.331zM37.746 67.806l34.6 17.602v-46.61l-9.885-4.325v12.604a2.471 2.471 0 0 1-3.576 2.212l-9.886-4.942a2.474 2.474 0 0 1-1.367-2.213V27.995l-9.886-4.325zm74.144.236V23.67l-34.6 15.138V85.43zm-20.864-.617a2.473 2.473 0 0 1 2.225 4.417l-9.904 4.977a2.472 2.472 0 1 1-2.224-4.416zm-11.003-1.589a2.471 2.471 0 0 1 1.095-3.319l9.76-4.907a2.473 2.473 0 0 1 2.224 4.417l-9.762 4.906a2.477 2.477 0 0 1-3.317-1.097z"/></g></g></svg>