<svg xmlns="http://www.w3.org/2000/svg" width="160" height="149" viewBox="0 0 160 149"><defs><linearGradient id="9eqaa" x1="79.9" x2="79.94" y1="148.24" y2="-.08" gradientUnits="userSpaceOnUse"><stop offset="0" stop-color="#6365d9"/><stop offset="1" stop-color="#34beea"/></linearGradient></defs><g><g><path fill="#fff" d="M114.498 135.64l-2.666 10.595a2.664 2.664 0 0 1-3.232 1.926 2.645 2.645 0 0 1-1.94-3.213l2.666-10.594a2.66 2.66 0 0 1 3.23-1.926 2.648 2.648 0 0 1 1.942 3.213zM78.9 79.178L1.585 47.394a2.644 2.644 0 0 1-1.648-2.447v-2.65a2.659 2.659 0 0 1 2.666-2.647 2.659 2.659 0 0 1 2.666 2.648v.88l74.65 30.685 28.303-11.637c1.357-.553 2.922.082 3.485 1.436a2.642 2.642 0 0 1-1.443 3.459L80.937 79.177a2.648 2.648 0 0 1-1.018.201c-.347 0-.694-.066-1.018-.201zm31.526 30.882c-5.945 2.918-16.066 6.399-30.508 6.399-41.32 0-52.668-27.002-53.132-28.15a2.66 2.66 0 0 1-.19-.984v-18.54a2.659 2.659 0 0 1 2.667-2.649 2.658 2.658 0 0 1 2.666 2.65v17.988c1.536 3.316 12.219 23.238 45.323 24.287V87.324a2.658 2.658 0 0 1 2.666-2.649 2.658 2.658 0 0 1 2.666 2.649v23.76c11.96-.395 20.417-3.287 25.48-5.774a2.67 2.67 0 0 1 3.57 1.202 2.635 2.635 0 0 1-1.208 3.547zm12.149 27.587v7.946a2.656 2.656 0 0 1-2.666 2.648 2.657 2.657 0 0 1-2.666-2.648v-7.946a2.657 2.657 0 0 1 2.666-2.649 2.657 2.657 0 0 1 2.666 2.649zM159.9 42.298v2.65c0 1.072-.65 2.04-1.65 2.449l-35.675 14.585v32.854c3.268-3.417 4.87-6.879 5.332-8.001v-18.05a2.657 2.657 0 0 1 2.666-2.65 2.657 2.657 0 0 1 2.666 2.65v18.54c0 .293-.05.587-.147.865-.12.339-2.863 7.983-10.517 13.722v15.034c3.095 1.099 5.332 4.01 5.332 7.458 0 4.38-3.589 7.945-7.998 7.945-4.41 0-7.998-3.564-7.998-7.945 0-3.449 2.237-6.36 5.332-7.458v-65.25L86.819 40.41c-1.85 1.165-4.231 1.888-6.9 1.888-5.98 0-10.664-3.49-10.664-7.946 0-4.454 4.684-7.945 10.664-7.945 5.98 0 10.664 3.491 10.664 7.945 0 .591-.093 1.158-.248 1.709l29.319 10.875 30.609-12.584L79.919 5.436 9.575 34.352 79.919 63.27l26.938-11.071a2.674 2.674 0 0 1 3.482 1.433 2.639 2.639 0 0 1-1.445 3.459L80.938 68.583a2.648 2.648 0 0 1-1.019.201c-.347 0-.693-.066-1.018-.201L1.585 36.8a2.645 2.645 0 0 1-1.648-2.448 2.65 2.65 0 0 1 1.648-2.447L78.9.122a2.69 2.69 0 0 1 2.036 0l77.32 31.783a2.65 2.65 0 0 1 1.644 2.447c0 1.073-.65 2.04-1.648 2.448l-35.677 14.668v4.785l31.993-13.08v-.875a2.657 2.657 0 0 1 2.666-2.648 2.657 2.657 0 0 1 2.666 2.648zm-74.65-7.946c0-1.08-2.077-2.648-5.332-2.648-3.256 0-5.332 1.568-5.332 2.648 0 1.081 2.077 2.65 5.332 2.65s5.332-1.568 5.332-2.65zm37.325 90.051a2.66 2.66 0 0 0-2.666-2.648 2.66 2.66 0 0 0-2.666 2.648 2.66 2.66 0 0 0 2.666 2.649 2.66 2.66 0 0 0 2.666-2.649zm10.584 20.545a2.647 2.647 0 0 1-1.94 3.213 2.664 2.664 0 0 1-3.231-1.925l-2.667-10.595a2.648 2.648 0 0 1 1.94-3.213 2.667 2.667 0 0 1 3.232 1.926z"/><path fill="url(#9eqaa)" d="M114.498 135.64l-2.666 10.595a2.664 2.664 0 0 1-3.232 1.926 2.645 2.645 0 0 1-1.94-3.213l2.666-10.594a2.66 2.66 0 0 1 3.23-1.926 2.648 2.648 0 0 1 1.942 3.213zM78.9 79.178L1.585 47.394a2.644 2.644 0 0 1-1.648-2.447v-2.65a2.659 2.659 0 0 1 2.666-2.647 2.659 2.659 0 0 1 2.666 2.648v.88l74.65 30.685 28.303-11.637c1.357-.553 2.922.082 3.485 1.436a2.642 2.642 0 0 1-1.443 3.459L80.937 79.177a2.648 2.648 0 0 1-1.018.201c-.347 0-.694-.066-1.018-.201zm31.526 30.882c-5.945 2.918-16.066 6.399-30.508 6.399-41.32 0-52.668-27.002-53.132-28.15a2.66 2.66 0 0 1-.19-.984v-18.54a2.659 2.659 0 0 1 2.667-2.649 2.658 2.658 0 0 1 2.666 2.65v17.988c1.536 3.316 12.219 23.238 45.323 24.287V87.324a2.658 2.658 0 0 1 2.666-2.649 2.658 2.658 0 0 1 2.666 2.649v23.76c11.96-.395 20.417-3.287 25.48-5.774a2.67 2.67 0 0 1 3.57 1.202 2.635 2.635 0 0 1-1.208 3.547zm12.149 27.587v7.946a2.656 2.656 0 0 1-2.666 2.648 2.657 2.657 0 0 1-2.666-2.648v-7.946a2.657 2.657 0 0 1 2.666-2.649 2.657 2.657 0 0 1 2.666 2.649zM159.9 42.298v2.65c0 1.072-.65 2.04-1.65 2.449l-35.675 14.585v32.854c3.268-3.417 4.87-6.879 5.332-8.001v-18.05a2.657 2.657 0 0 1 2.666-2.65 2.657 2.657 0 0 1 2.666 2.65v18.54c0 .293-.05.587-.147.865-.12.339-2.863 7.983-10.517 13.722v15.034c3.095 1.099 5.332 4.01 5.332 7.458 0 4.38-3.589 7.945-7.998 7.945-4.41 0-7.998-3.564-7.998-7.945 0-3.449 2.237-6.36 5.332-7.458v-65.25L86.819 40.41c-1.85 1.165-4.231 1.888-6.9 1.888-5.98 0-10.664-3.49-10.664-7.946 0-4.454 4.684-7.945 10.664-7.945 5.98 0 10.664 3.491 10.664 7.945 0 .591-.093 1.158-.248 1.709l29.319 10.875 30.609-12.584L79.919 5.436 9.575 34.352 79.919 63.27l26.938-11.071a2.674 2.674 0 0 1 3.482 1.433 2.639 2.639 0 0 1-1.445 3.459L80.938 68.583a2.648 2.648 0 0 1-1.019.201c-.347 0-.693-.066-1.018-.201L1.585 36.8a2.645 2.645 0 0 1-1.648-2.448 2.65 2.65 0 0 1 1.648-2.447L78.9.122a2.69 2.69 0 0 1 2.036 0l77.32 31.783a2.65 2.65 0 0 1 1.644 2.447c0 1.073-.65 2.04-1.648 2.448l-35.677 14.668v4.785l31.993-13.08v-.875a2.657 2.657 0 0 1 2.666-2.648 2.657 2.657 0 0 1 2.666 2.648zm-74.65-7.946c0-1.08-2.077-2.648-5.332-2.648-3.256 0-5.332 1.568-5.332 2.648 0 1.081 2.077 2.65 5.332 2.65s5.332-1.568 5.332-2.65zm37.325 90.051a2.66 2.66 0 0 0-2.666-2.648 2.66 2.66 0 0 0-2.666 2.648 2.66 2.66 0 0 0 2.666 2.649 2.66 2.66 0 0 0 2.666-2.649zm10.584 20.545a2.647 2.647 0 0 1-1.94 3.213 2.664 2.664 0 0 1-3.231-1.925l-2.667-10.595a2.648 2.648 0 0 1 1.94-3.213 2.667 2.667 0 0 1 3.232 1.926z"/></g></g></svg>