<svg xmlns="http://www.w3.org/2000/svg" width="131" height="137" viewBox="0 0 131 137"><defs><linearGradient id="gnr5a" x1="65.15" x2="65.55" y1="136.24" y2=".8" gradientUnits="userSpaceOnUse"><stop offset="0" stop-color="#6365d9"/><stop offset="1" stop-color="#34beea"/></linearGradient></defs><g><g><path fill="#fff" d="M65.35 22.642H50.715V.796h50.17v21.846H80.738L65.35 36.044zm4.18-4.37v8.444l9.696-8.444h17.48V5.165h-41.81v13.107zM59.078 9.534h4.18v4.369h-4.18zm8.361 0h16.724v4.369H67.439zm20.905 0h4.18v4.369h-4.18zm41.808 122.337v4.37H.546v-4.37H19.36V96.918h-4.181V83.81h8.362v-8.164c0-3.882 2.493-7.338 6.064-8.402l8.569-2.555v-3.904c-2.56-2.404-4.181-5.875-4.181-9.743v-4.37c0-7.229 5.625-13.107 12.542-13.107 6.918 0 12.543 5.878 12.543 13.107v4.37c0 3.87-1.622 7.341-4.181 9.743v3.901l8.569 2.556c3.39 1.014 5.784 4.188 6.018 7.83h11.723l11.22-11.725c-4.813-1.835-8.264-6.65-8.264-12.305v-4.37c0-7.229 5.625-13.107 12.542-13.107 6.918 0 12.543 5.878 12.543 13.107v4.37c0 3.814-1.576 7.242-4.073 9.638 2.511 1.368 4.073 4.034 4.073 7.004v3.02h8.362v28.398c0 7.616-5.362 13.931-12.342 15.084l1.69 17.685zm-48.08-34.953v4.37h16.724c3.457 0 6.27-2.942 6.27-6.555V67.684c0-.158-.04-.302-.06-.455-.142 1.569-.779 3.071-1.85 4.19L88.344 86.9v10.019zm0 34.953h12.324l-1.673-17.476h-10.65zm16.525 0h4.16l-1.672-17.476h-4.16zm.199-26.215H82.072v4.37h20.905c5.762 0 10.452-4.9 10.452-10.924v-24.03h-4.181v19.661c0 6.023-4.69 10.923-10.452 10.923zm-2.09-45.876c4.61 0 8.36-3.92 8.36-8.738v-4.37c0-4.82-3.75-8.738-8.36-8.738-4.612 0-8.362 3.919-8.362 8.738v4.37c0 4.819 3.75 8.738 8.361 8.738zM63.258 79.441c-1.154 0-2.09.98-2.09 2.185s.936 2.184 2.09 2.184h22.129L100.2 68.33a2.522 2.522 0 0 0 .686-1.732c0-1.35-1.051-2.45-2.343-2.45-.617 0-1.221.26-1.658.718L82.938 79.44zm-25.085-28.4c0 4.82 3.75 8.74 8.361 8.74 4.612 0 8.362-3.92 8.362-8.74v-4.369c0-4.82-3.75-8.738-8.362-8.738-4.611 0-8.361 3.919-8.361 8.738zm4.18 12.343v2.347c.519.836 1.96 2.787 4.181 2.787 2.222 0 3.663-1.951 4.181-2.787v-2.347c-1.31.486-2.713.765-4.18.765a12 12 0 0 1-4.182-.765zM27.721 83.808h29.651a6.722 6.722 0 0 1-.385-2.184c0-3.613 2.814-6.554 6.272-6.554h2c-.223-1.693-1.34-3.148-2.941-3.627l-8.612-2.571c-1.213 1.654-3.573 4.015-7.17 4.015-3.599 0-5.959-2.36-7.171-4.013l-8.612 2.571c-1.783.533-3.032 2.26-3.032 4.201zm-8.361 8.74h64.803V88.18H19.36zm4.18 39.323h4.98l4.18-8.738h36.032l4.18 8.738h4.98v-26.215h-43.9v-4.369h43.9v-4.37H23.54v4.37h6.271v4.369h-6.271zm42.607-4.37H35.285l-2.09 4.37h35.043z"/><path fill="url(#gnr5a)" d="M65.35 22.642H50.715V.796h50.17v21.846H80.738L65.35 36.044zm4.18-4.37v8.444l9.696-8.444h17.48V5.165h-41.81v13.107zM59.078 9.534h4.18v4.369h-4.18zm8.361 0h16.724v4.369H67.439zm20.905 0h4.18v4.369h-4.18zm41.808 122.337v4.37H.546v-4.37H19.36V96.918h-4.181V83.81h8.362v-8.164c0-3.882 2.493-7.338 6.064-8.402l8.569-2.555v-3.904c-2.56-2.404-4.181-5.875-4.181-9.743v-4.37c0-7.229 5.625-13.107 12.542-13.107 6.918 0 12.543 5.878 12.543 13.107v4.37c0 3.87-1.622 7.341-4.181 9.743v3.901l8.569 2.556c3.39 1.014 5.784 4.188 6.018 7.83h11.723l11.22-11.725c-4.813-1.835-8.264-6.65-8.264-12.305v-4.37c0-7.229 5.625-13.107 12.542-13.107 6.918 0 12.543 5.878 12.543 13.107v4.37c0 3.814-1.576 7.242-4.073 9.638 2.511 1.368 4.073 4.034 4.073 7.004v3.02h8.362v28.398c0 7.616-5.362 13.931-12.342 15.084l1.69 17.685zm-48.08-34.953v4.37h16.724c3.457 0 6.27-2.942 6.27-6.555V67.684c0-.158-.04-.302-.06-.455-.142 1.569-.779 3.071-1.85 4.19L88.344 86.9v10.019zm0 34.953h12.324l-1.673-17.476h-10.65zm16.525 0h4.16l-1.672-17.476h-4.16zm.199-26.215H82.072v4.37h20.905c5.762 0 10.452-4.9 10.452-10.924v-24.03h-4.181v19.661c0 6.023-4.69 10.923-10.452 10.923zm-2.09-45.876c4.61 0 8.36-3.92 8.36-8.738v-4.37c0-4.82-3.75-8.738-8.36-8.738-4.612 0-8.362 3.919-8.362 8.738v4.37c0 4.819 3.75 8.738 8.361 8.738zM63.258 79.441c-1.154 0-2.09.98-2.09 2.185s.936 2.184 2.09 2.184h22.129L100.2 68.33a2.522 2.522 0 0 0 .686-1.732c0-1.35-1.051-2.45-2.343-2.45-.617 0-1.221.26-1.658.718L82.938 79.44zm-25.085-28.4c0 4.82 3.75 8.74 8.361 8.74 4.612 0 8.362-3.92 8.362-8.74v-4.369c0-4.82-3.75-8.738-8.362-8.738-4.611 0-8.361 3.919-8.361 8.738zm4.18 12.343v2.347c.519.836 1.96 2.787 4.181 2.787 2.222 0 3.663-1.951 4.181-2.787v-2.347c-1.31.486-2.713.765-4.18.765a12 12 0 0 1-4.182-.765zM27.721 83.808h29.651a6.722 6.722 0 0 1-.385-2.184c0-3.613 2.814-6.554 6.272-6.554h2c-.223-1.693-1.34-3.148-2.941-3.627l-8.612-2.571c-1.213 1.654-3.573 4.015-7.17 4.015-3.599 0-5.959-2.36-7.171-4.013l-8.612 2.571c-1.783.533-3.032 2.26-3.032 4.201zm-8.361 8.74h64.803V88.18H19.36zm4.18 39.323h4.98l4.18-8.738h36.032l4.18 8.738h4.98v-26.215h-43.9v-4.369h43.9v-4.37H23.54v4.37h6.271v4.369h-6.271zm42.607-4.37H35.285l-2.09 4.37h35.043z"/></g></g></svg>