<svg xmlns="http://www.w3.org/2000/svg" width="146" height="147" viewBox="0 0 146 147"><g><g><path fill="#fff" d="M142.996 117.207a19.442 19.442 0 0 1 .282 19.46 19.49 19.49 0 0 1-16.731 9.976H19.391C8.84 146.633.216 138.23-.056 127.695c-.272-10.535 7.907-19.37 18.444-19.922L.41 64.453a4.877 4.877 0 0 1 2.637-6.356l20.26-8.378a4.925 4.925 0 0 1 6.356 2.6L42.92 84.297a27.46 27.46 0 0 1 5.63-.84L36.5 32.088v-.11c-.04-.177-.06-.36-.06-.542l.915-25.287A5.625 5.625 0 0 1 47.92 3.68l12.065 22.255c.073.15.13.307.17.47.015.045.063.082.063.133l11.812 50.45a33.138 33.138 0 0 1 6.064-4.22 121.701 121.701 0 0 1 .424-17.25c.319-3.468.782-7.026 1.37-10.784a18.886 18.886 0 0 1-3.467-5.595 14.223 14.223 0 0 1 3.339-15.513c9.264-10.21 10.35-15.175 9.096-19.879a2.432 2.432 0 0 1 1.015-2.658 2.438 2.438 0 0 1 2.845.121c.548.43 13.375 10.67 14.897 24.846a26.53 26.53 0 0 1-6.045 19.49c.31 7.995-.113 16-1.261 23.92a32.693 32.693 0 0 1 8.7 3.137l5.574-13.46v-.026a45.617 45.617 0 0 0 4.093-15.162 3.629 3.629 0 0 1 1.72-2.992l17.196-10.72h.024c.037-.022.08-.03.117-.049.41-.226.875-.33 1.342-.299.056.005.105.041.16.041.196.023.387.07.57.139.133.064.26.141.378.229.092.047.181.1.266.16.128.121.243.256.343.401.049.064.134.147.153.18.02.034.027.078.047.114.107.185.189.383.243.59l4.574 19.728a3.624 3.624 0 0 1-.899 3.32 45.675 45.675 0 0 0-7.83 13.578.47.47 0 0 1 0 .054l-11.153 26.887c.812 4.094.832 8.305.058 12.406a19.49 19.49 0 0 1 17.014 9.486zm-22.757-59.222a10.011 10.011 0 0 0 5.573 5.792 10.029 10.029 0 0 0 8.041-.168 48.1 48.1 0 0 1 7.063-11.644l-2.706-11.708-3.614 8.718a2.437 2.437 0 0 1-3.183 1.316 2.432 2.432 0 0 1-1.318-3.18l3.614-8.717-10.209 6.362a48.002 48.002 0 0 1-3.26 13.229zm-7.062 17.266a33.02 33.02 0 0 1 10.457 12.915l7.772-18.73c-.49.058-.983.087-1.476.09a15.464 15.464 0 0 1-5.96-1.256 14.83 14.83 0 0 1-6.07-4.416zM84.53 46.481a176.542 176.542 0 0 0-.899 7.048c.304.041.604.075.91.119 4.03.682 8.126.88 12.202.589.076-2.387.102-4.737.027-7.009l-12.235-.747zm-1.162-19.59a10.14 10.14 0 0 0 .188 14.645c4.705.292 9.463.584 14.273.876a21.779 21.779 0 0 0 4.93-15.841 32.517 32.517 0 0 0-8.79-17.437c-.78 5.152-4.13 10.633-10.596 17.758zm-.185 31.485c-.317 4.086-.42 8.184-.307 12.28A32.642 32.642 0 0 1 93.67 68.8c.604 0 1.193.058 1.794.09.46-3.379.824-6.648 1.045-9.778-1.064.082-2.126.162-3.134.162a69.436 69.436 0 0 1-9.48-.805l-.707-.093zm-15.177 22.78L57.139 34.744a11.532 11.532 0 0 1-4.254 3.236l1.724 7.349a2.431 2.431 0 0 1-.684 2.36 2.438 2.438 0 0 1-4.058-1.251l-1.722-7.344c-.155.007-.319.029-.472.029a11.551 11.551 0 0 1-4.768-1.036l10.688 45.562c1.81.263 3.588.706 5.31 1.32L52.64 58.287a2.436 2.436 0 0 1 4.742-1.11l6.967 29.647a32.618 32.618 0 0 1 3.656-5.667zM49.47 34.04a8.07 8.07 0 0 0 5.838-6.538l-4.101-7.56a12.414 12.414 0 0 1-4.516 2.242c-.811.186-1.641.278-2.474.275a14.312 14.312 0 0 1-2.57-.244l-.308 8.568a8.09 8.09 0 0 0 8.131 3.252zM42.215 6.324l-.397 10.962a8.292 8.292 0 0 0 3.753.177 8.312 8.312 0 0 0 3.288-1.824l-5.222-9.645a.76.76 0 0 0-1.422.33zM4.905 62.583l17.652 42.511a28.248 28.248 0 0 1 15.77-19.17l-1.971-4.752-9.011 3.727a2.434 2.434 0 0 1-3.323-1.772 2.432 2.432 0 0 1 1.457-2.723l9.019-3.734-1.863-4.496-4.508 1.866a2.435 2.435 0 0 1-3.322-1.772 2.432 2.432 0 0 1 1.456-2.723l4.508-1.866-1.863-4.495-9.01 3.729a2.435 2.435 0 0 1-3.315-1.77 2.433 2.433 0 0 1 1.444-2.721l9.01-3.727-1.86-4.49zm136.254 64.599c0-8.061-6.542-14.596-14.612-14.596a15.24 15.24 0 0 0-3.251.356 2.432 2.432 0 0 1-2.85-3.095 27.68 27.68 0 0 0 1.23-8.207c.012-13.528-9.67-25.127-22.995-27.547-13.325-2.421-26.475 5.03-31.233 17.695a2.435 2.435 0 0 1-3.733 1.095 23.158 23.158 0 0 0-24.024-2.29 23.108 23.108 0 0 0-12.994 20.313 2.432 2.432 0 0 1-3.14 2.284 14.36 14.36 0 0 0-4.166-.604c-8.07 0-14.612 6.535-14.612 14.596s6.542 14.595 14.612 14.595h107.156c8.07 0 14.612-6.534 14.612-14.595zM94.135 38.875c-.923 0-1.766-.52-2.178-1.345a2.43 2.43 0 0 1 .23-2.547 13.5 13.5 0 0 0 2.415-10.134 2.436 2.436 0 1 1 4.705-1.253 18.228 18.228 0 0 1-3.239 14.323 2.436 2.436 0 0 1-1.948.96zm7.84 80.802a2.432 2.432 0 0 1-1.206 3.224 2.437 2.437 0 0 1-3.227-1.204 7.306 7.306 0 0 0-6.624-4.245 7.185 7.185 0 0 0-4.52 1.595 2.43 2.43 0 0 1-.256.131 2.103 2.103 0 0 1-.226.168c-.064.02-.128.035-.193.047-.3.1-.614.153-.93.155a2.215 2.215 0 0 1-.458-.07 2.395 2.395 0 0 1-.438-.137 2.378 2.378 0 0 1-.39-.243 2.302 2.302 0 0 1-.378-.316c-.048-.05-.112-.075-.156-.129a2.42 2.42 0 0 1-.129-.243 2.797 2.797 0 0 1-.17-.228 9.645 9.645 0 0 0-8.804-5.596c-5.38 0-9.741 4.356-9.741 9.73 0 1.344.273 2.673.803 3.908a2.429 2.429 0 0 1-1.286 3.19 2.436 2.436 0 0 1-3.195-1.284c-2.908-6.823-.23-14.741 6.226-18.405 6.455-3.665 14.636-1.91 19.017 4.078a11.98 11.98 0 0 1 5.224-1.217 12.179 12.179 0 0 1 11.056 7.091zm-59-24.004a2.437 2.437 0 1 1 1.554 4.622 8.365 8.365 0 0 0-5.655 7.426 2.434 2.434 0 0 1-2.435 2.433 2.434 2.434 0 0 1-2.436-2.433c0-8.947 8.604-11.92 8.972-12.038zm32.502-5.57a15.166 15.166 0 0 1 14.54-11.572 2.433 2.433 0 0 1 .012 4.865 10.385 10.385 0 0 0-9.83 7.888 2.435 2.435 0 0 1-4.722-1.181z"/></g></g></svg>