<svg xmlns="http://www.w3.org/2000/svg" width="2152" height="1218" viewBox="0 0 2152 1218"><defs><linearGradient id="sbeha" x1="1291" x2="816" y1="1069" y2="-.03" gradientUnits="userSpaceOnUse"><stop offset="0" stop-color="#4ec7f5"/><stop offset="1" stop-color="#5c75fe"/></linearGradient><linearGradient id="sbehb" x1="851" x2="1256" y1="108.06" y2="1165" gradientUnits="userSpaceOnUse"><stop offset="0" stop-color="#4ec7f5"/><stop offset="1" stop-color="#5c75fe"/></linearGradient><linearGradient id="sbehc" x1="902" x2="1258" y1="455.24" y2="1218" gradientUnits="userSpaceOnUse"><stop offset="0" stop-color="#4ec7f5"/><stop offset="1" stop-color="#5c75fe"/></linearGradient></defs><g><g opacity=".15"><path fill="#d9faff" d="M50 189c1.352-11.226 254.118 277.887 989-51 821.968-367.861 1065 116 1065 116l3 815L0 1054z"/><path fill="url(#sbeha)" d="M50 189c1.352-11.226 254.118 277.887 989-51 821.968-367.861 1065 116 1065 116l3 815L0 1054z"/></g><g><path fill="#69def4" d="M47 165c-.553.21 264.737 365.485 992 69 833.896-339.957 1065 116 1065 116l3 815L0 1150z"/><path fill="url(#sbehb)" d="M47 165c-.553.21 264.737 365.485 992 69 833.896-339.957 1065 116 1065 116l3 815L0 1150z"/></g><g opacity=".15"><path fill="#bbf4ff" d="M2152 573s-250.733-234.236-704-42c-384.969 163.27-350.217 523.617-767 475C203.72 950.326 8 1218 8 1218l2112-93z"/><path fill="url(#sbehc)" d="M2152 573s-250.733-234.236-704-42c-384.969 163.27-350.217 523.617-767 475C203.72 950.326 8 1218 8 1218l2112-93z"/></g></g></svg>